
<svg xmlns="http://www.w3.org/2000/svg" viewBox="0 0 381.8 339.64"><defs><style>.cls-1,.cls-2{fill:#fff;}.cls-2{font-size:138px;font-family:MyriadPro-Regular, Myriad Pro;letter-spacing:-0.15em;}</style></defs><title>SeedPathLogo</title><g id="Layer_2" data-name="Layer 2"><g id="Layer_1-2" data-name="Layer 1"><path class="cls-1" d="M78.63,114.64a73.12,73.12,0,0,0-14.93,1.46Q57,117.54,50.89,119q-4.44,1.44-8.35,2.42a59.12,59.12,0,0,1-8.29,1.43q-15.9,1.65-25.4-7.12T.05,91.8A44.72,44.72,0,0,1,1.81,81Q3.32,75.89,5.17,70A124.46,124.46,0,0,1,20.1,43.17,94.76,94.76,0,0,1,43.36,20.93a66,66,0,0,1,11.23-6.33,43.88,43.88,0,0,1,13.33-3.43,28.91,28.91,0,0,1,12.62.74,28.15,28.15,0,0,1,10.59,5.71,30,30,0,0,1,7.4,9.72,32.17,32.17,0,0,1,3.17,12.46A52.42,52.42,0,0,1,91.28,69Q81.65,82,69.45,87.73,67.12,89,66.29,88.8a12.8,12.8,0,0,0-3.11.08,2.09,2.09,0,0,1-1.7-.56q-.73-.66-1.64-1.55a4.06,4.06,0,0,1,2-3q1.41-.64,3.74-1.86A61.3,61.3,0,0,0,81.17,68.65,54.6,54.6,0,0,0,91.27,49.9a78.94,78.94,0,0,1,1.1-8.39A29.33,29.33,0,0,0,92.64,33a20.91,20.91,0,0,0-2.42-4.42q-1.13-1.44-5.51-1a35.35,35.35,0,0,0-7.07-.25A10.48,10.48,0,0,0,71,30.2a32.9,32.9,0,0,0-8.2,4q-3.76,2.52-7.9,5.24A83.77,83.77,0,0,0,31.56,66,117.61,117.61,0,0,0,19.37,99.47a35.89,35.89,0,0,0-.34,11q.31,6.2,6.3,5.41L38,114.59Q45,113,51.45,111t13.62-3.79a93.4,93.4,0,0,1,18.15-.4c1.58.49,11.33,6,11.86,6.89a6.25,6.25,0,0,0,1.85,2,29.29,29.29,0,0,1,6.57,12.84,27.58,27.58,0,0,1-.8,14.42,75,75,0,0,1-10.4,23.86A63.81,63.81,0,0,1,73.15,185.2a39.68,39.68,0,0,1-23.69,7q-6.42-.32-9-3.42t-3.17-9.26a44.61,44.61,0,0,1,5.4-19.08,137.06,137.06,0,0,1,8.73-15.41,107.57,107.57,0,0,1,11.73-14.9C65.9,127.82,75.16,118.06,78.63,114.64Zm6,5.93-1.13.12a135.51,135.51,0,0,0-29.94,40.14,38,38,0,0,1-2,6.43,16.29,16.29,0,0,0-.83,7.79,3.43,3.43,0,0,0-.69,2.86,4,4,0,0,0,1.27,2.82c.06.54.45.94,1.19,1.19a1.8,1.8,0,0,0,2-.53,8.83,8.83,0,0,0,2.53-.92,9.38,9.38,0,0,0,2.61-1.74A82.38,82.38,0,0,0,76.33,155a135.45,135.45,0,0,0,9.08-27.08L85,124.31Z"/><path class="cls-1" d="M180.7,87.89a5.7,5.7,0,0,1,3.41-.27q2,.37,1.66,3.35-1.15,1.59-.84,2.22c.21.42,0,1-.71,1.88q-5.42,9.41-11.5,18.73t-12,18.78a53,53,0,0,1-5.17,7q-2.64,3-5.92,6.1-8.12,7.07-17.55,6.24a25.7,25.7,0,0,1-16.38-7.81,27.49,27.49,0,0,1-7.55-14.38,60.66,60.66,0,0,1-.84-16.06,62,62,0,0,1,4.5-22.27,79.29,79.29,0,0,1,12.1-20.1,55.92,55.92,0,0,1,14.81-10.55,16.92,16.92,0,0,1,17.54,1.63,41.32,41.32,0,0,1,6.26,7.38q2.25,3.54,1.43,9.85a61.18,61.18,0,0,1-8.6,18.26,44,44,0,0,1-14.67,13.48,4,4,0,0,1-3,1.45c-1.09,0-2,0-2.77.12q-6.17,2.11-6.92,3.58t-.11,7.63q.44,4.22.81,8.6a25.94,25.94,0,0,0,2.09,8.31q1.52,3.62,3.07,4.27t4.31-1.1a31.39,31.39,0,0,0,4.76-3.11,55.8,55.8,0,0,1,4.89-3.46q3.63-4.47,7.28-9.6t6.94-9.73q4.71-6.71,8-12.14T177,95a18.2,18.2,0,0,0,1.68-3.53A12.07,12.07,0,0,1,180.7,87.89Zm-51.12,19.22a25.55,25.55,0,0,0,11.67-6.78,93.36,93.36,0,0,0,7.5-9.14,49.29,49.29,0,0,0,3.95-7.78q1.56-3.93-.13-9.16A50.49,50.49,0,0,0,138.8,88.45,117.45,117.45,0,0,0,129.59,107.11Z"/><path class="cls-1" d="M248,76.82a5.7,5.7,0,0,1,3.41-.27q2,.37,1.66,3.35-1.15,1.59-.84,2.22T251.5,84q-5.42,9.41-11.5,18.73T228,121.5a52.94,52.94,0,0,1-5.18,7q-2.64,3-5.92,6.1-8.12,7.07-17.55,6.24A25.7,25.7,0,0,1,183,133a27.48,27.48,0,0,1-7.55-14.38,60.71,60.71,0,0,1-.84-16.06,62.05,62.05,0,0,1,4.5-22.27,79.29,79.29,0,0,1,12.1-20.1A55.92,55.92,0,0,1,206,49.7a16.92,16.92,0,0,1,17.54,1.63,41.33,41.33,0,0,1,6.25,7.38q2.25,3.54,1.43,9.85a61.2,61.2,0,0,1-8.6,18.26A44.05,44.05,0,0,1,208,100.3a4,4,0,0,1-3,1.45c-1.09,0-2,0-2.77.12q-6.17,2.11-6.92,3.58t-.11,7.63q.44,4.22.81,8.6a25.94,25.94,0,0,0,2.09,8.31q1.52,3.62,3.06,4.27t4.31-1.1a31.49,31.49,0,0,0,4.76-3.11,55.61,55.61,0,0,1,4.89-3.46q3.63-4.47,7.28-9.6l6.94-9.73q4.71-6.71,8-12.14t7-11.21A18.33,18.33,0,0,0,246,80.39,12,12,0,0,1,248,76.82ZM196.86,96a25.55,25.55,0,0,0,11.67-6.78,93.51,93.51,0,0,0,7.5-9.14A49.29,49.29,0,0,0,220,72.34q1.56-3.93-.13-9.16a50.5,50.5,0,0,0-13.77,14.21A117.55,117.55,0,0,0,196.86,96Z"/><path class="cls-1" d="M301.81,46.48a41.39,41.39,0,0,0,1.1-4.38,7.48,7.48,0,0,1,1.4-3.1q2.93-6.53,5.63-13.7T315.68,11a19.63,19.63,0,0,0,1.69-3.45,12.46,12.46,0,0,1,2-3.49q1.17-2.91,3.06-3.68a3.63,3.63,0,0,1,3.46.21q7.87,1.64,6.17,7.39.89,5.48-1.07,8.63-4.68,16.55-9.32,32.68t-8.36,32.42q-2.77,14.39-5.58,28.44t-5,27.56a21.92,21.92,0,0,1-1.11,4.29q-.83,2.3.73,3.12,1.95-.2,4.56-5.06a46.17,46.17,0,0,0,3.7-8.58q5.47-13.68,11.58-27.51t11.56-27.67a4.69,4.69,0,0,0,1.13-2.49,12.81,12.81,0,0,0,0-2.54,2,2,0,0,1,2.42-1.15,7,7,0,0,0,2.73.29,20.48,20.48,0,0,0,2,1.68q.71.5-.28,2.08a5.44,5.44,0,0,0-1.26,2.1,4.73,4.73,0,0,1-1.11,1.92q-10.6,27.49-21.61,52.56-2.5,4.35-4.46,8.33T309,147.52q-4.65,7.37-10.92,6.13a13.91,13.91,0,0,1-9.67-7.11,47.62,47.62,0,0,1-2.72-9.64,34.09,34.09,0,0,1,0-9.92q-.22-2.11-.28-5.13t0-6.07q.09-3,.24-5.6a26.93,26.93,0,0,0,.06-3.37,40.3,40.3,0,0,1-8,12.55,77.86,77.86,0,0,0-7.89,9.26q-6.39,6.4-17,5.2Q242,132,238.28,119.93a18.87,18.87,0,0,1-1.52-7.55,29.41,29.41,0,0,1,1.06-8,89.84,89.84,0,0,1,9.58-27.79,120.93,120.93,0,0,1,17.78-24.54A38,38,0,0,1,269,48.15a39.28,39.28,0,0,1,5.32-4.07q10.44-6.82,22.21-.82A6.55,6.55,0,0,0,299,44.8,9,9,0,0,1,301.81,46.48Zm-44.33,76.87Q263,121,270.15,111.88a157.88,157.88,0,0,0,13.6-20.59,182.89,182.89,0,0,0,10.84-22.76q4.4-11.27,4.37-18-3.88-1.07-5.71,1.08a21.28,21.28,0,0,1-4.43,3.9A135.63,135.63,0,0,0,268,82.93a86.06,86.06,0,0,0-10.3,32.7,13.94,13.94,0,0,1-.15,3.29A18.11,18.11,0,0,0,257.48,123.35Z"/><path class="cls-1" d="M126.63,278.58q.19,1,.74,5.83t1.18,10.36q.63,5.58,1.25,10.76t1,7.12a5.94,5.94,0,0,1-.87,4l-1.71,3.06q-2.26,2.29-4,1.67a5.28,5.28,0,0,1-2.82-3,32.9,32.9,0,0,1-4.51-7.74q-1.9-4.47-3.19-7.85a17.58,17.58,0,0,1-1.36-3.77q-.79-2.8-1.36-5.91T109.89,287q-.5-3.05-.74-4.35a27,27,0,0,1-4.53.5,33.91,33.91,0,0,1-4.54-.3q-3.75,0-5.16-1.46a10.09,10.09,0,0,1-2.08-5.11,43.63,43.63,0,0,0,6.85-.26,60.6,60.6,0,0,1,7-.41q.31-1.93.44-2.69a9.16,9.16,0,0,0-.23-2.71,144.65,144.65,0,0,1-2.34-27.57,183.11,183.11,0,0,1,2.31-27.76,18,18,0,0,1,1.29-5.33,20.72,20.72,0,0,0,1.4-5.48q1.36-2.79,2.92-3.42t4.49.71a17.48,17.48,0,0,1,4.22,2.91,9.45,9.45,0,0,1,2,4.91,78.61,78.61,0,0,0-.65,8.83q-.24,11,.16,20.47t.92,16.24q.52,6.8,1.65,14.37a106.87,106.87,0,0,0,23.15-16.46,75.35,75.35,0,0,0,16.9-22,41.53,41.53,0,0,0,5.92-12.95,42.56,42.56,0,0,0,1.48-13.74q.09-9.66-3.86-14.36t-13.95-6.6q-15.94-2.15-27.94,4-5.47,3-10.37,5.53a64.42,64.42,0,0,0-9.36,5.88q-5.81,4.83-12.1,9.2t-12,9q-2.23,2.42-3.65,3.82a24.55,24.55,0,0,0-2.9,3.55q-1.58,2.3-2.67,2.57a7,7,0,0,1-3-.17A10.07,10.07,0,0,1,69,224.9c-.65-.59-1.23-1.11-1.76-1.55q-6-4.12-1.84-10a7.26,7.26,0,0,0,2.74-2.92A8.17,8.17,0,0,1,71,207.39q8.42-6.64,15.94-13.06t14.88-13a58.18,58.18,0,0,1,16.25-9.23,113.16,113.16,0,0,1,19-5.18q12.71-1.54,22,3.18t16,15.68q13.42,23.38,1.95,46.13a78.78,78.78,0,0,1-14.36,20.2,117.29,117.29,0,0,1-19.46,15.78,93.8,93.8,0,0,0-7.92,5.35A63.76,63.76,0,0,1,126.63,278.58Z"/><path class="cls-1" d="M212.55,215.77q2.19-2.95,4.36-3.29a16.4,16.4,0,0,1,5.84.49,7.85,7.85,0,0,1,3.45,2.52,9,9,0,0,1,2,4.75,28.52,28.52,0,0,1,.15,6.86,24.11,24.11,0,0,0,.3,6.82q.07,13,1.32,25.29a203.24,203.24,0,0,0,4.18,25.06,2.7,2.7,0,0,0,.3,2.59,3.66,3.66,0,0,1,.55,2.84q-.09-.3.95,1.5a15.55,15.55,0,0,0,2.65-5.69q.51-2.59,1.48-6.31,1.37-7.74,2.93-15.12t2.75-15.72a103.78,103.78,0,0,1,2.59-13.31,70.6,70.6,0,0,0,2.17-14.16q1.08-3.91,4.69-2.74,1.79,1.08,1.46,2.64a2.55,2.55,0,0,1,.25,1.88,19.2,19.2,0,0,0-.6,2.3,213.53,213.53,0,0,0-3.92,24.37,214.22,214.22,0,0,1-3.92,24.37q-1.3,4.79-2.63,9.75a75.33,75.33,0,0,1-3,9q-2.59,7.46-8.09,7.84t-11.15-3.74a23.58,23.58,0,0,1-5.68-7.94,77.56,77.56,0,0,1-3.23-9.5,13.45,13.45,0,0,1-1.46-2.64q-.61-1.44-1.82-3.83a13.37,13.37,0,0,1-1.23,3.14,9.2,9.2,0,0,0-1,2.75q-1.67,4.09-3,7.11a35.37,35.37,0,0,1-3,5.48q-3.66,6.65-11,6.47A15.37,15.37,0,0,1,180,291.6a28.22,28.22,0,0,0-2.83-3.93,8.87,8.87,0,0,1-1.92-4.69,79.21,79.21,0,0,1-1.12-13.48,77.4,77.4,0,0,1,1.56-14.3,85.33,85.33,0,0,1,15.27-34.59q4.44-6.73,9.47-7.86T212.55,215.77Zm-16.47,73.66q16.64-32.74,16.37-67.62A50.87,50.87,0,0,0,204,234.64a95.17,95.17,0,0,0-6.36,17.48,99.35,99.35,0,0,0-3.06,19.23A60.08,60.08,0,0,0,196.08,289.44Z"/><path class="cls-1" d="M248.8,209.75l-8.62,2.07q-3.63.87-6.4-4.7a12.23,12.23,0,0,1,6.79-6,54.45,54.45,0,0,0,8.88-4q.26-3.58.52-6.84t.78-7.06a30.82,30.82,0,0,0,.42-4.9,7.61,7.61,0,0,1,.87-3.73q.74-2.9,2.6-3.5a11.12,11.12,0,0,1,4.83-.2,9,9,0,0,1,5.65,2.88,14.33,14.33,0,0,1,2.9,6.1,14.11,14.11,0,0,0-.05,5.45,22.38,22.38,0,0,1,.24,6q2.57-.62,4.71-1a15.61,15.61,0,0,1,5.11,0q3.78-.91,5.62.41t4.24,6l-19.35,4.64q.15,8.6.61,19.2t1.36,21.66q.89,11.06,2.3,21.59a187.94,187.94,0,0,0,3.4,18.85,5.27,5.27,0,0,1,1.81-2.12,1.48,1.48,0,0,0,.79-1.71,37.11,37.11,0,0,0,3.6-9.66q1.71-9.52,4.27-19.17t4.39-19.36q1.33-4.47,2.53-5.8a2,2,0,0,1,2.66-.56,7.1,7.1,0,0,1,2.12,1.49,5.42,5.42,0,0,1,.79,2c-.61,1-.81,1.5-.6,1.5s.41.36.57,1.06q-2.89,10-5.32,20.46t-5.36,20.31a41.4,41.4,0,0,1-2,6.15,40.9,40.9,0,0,0-2,6.15,13.2,13.2,0,0,1-7,5.61,11.07,11.07,0,0,1-8.95-1,29.38,29.38,0,0,1-5.26-3.93,25.33,25.33,0,0,1-3.74-4.94q-7.65-8.56-8.51-21.46-.31-3.28-.75-10.77t-.93-15.53q-.49-8-.73-14.37T248.8,209.75Z"/><path class="cls-1" d="M350.56,284.35a1.5,1.5,0,0,0,1.05-1,6.5,6.5,0,0,0,.43-2.12,10.85,10.85,0,0,1,.92-3c3.93-9.45,6.5-3.42,4.61,5.55-.37,2.44-.28,3.55-1,6.88-.49,2.21-1.58,4.3-1.94,6.72a1.47,1.47,0,0,1-.23.59,6,6,0,0,0-1,2.25,9,9,0,0,1-.93,2.55l-.09.15q-3.78,6.11-9.18,6.14t-9.29-5a1.85,1.85,0,0,1-.17-.25,33.15,33.15,0,0,1-3.39-8.63,43,43,0,0,1-.89-9.3,1.23,1.23,0,0,0,0-.15,126.36,126.36,0,0,1-.54-25.22q1-12.75,1.8-24.53a1.33,1.33,0,0,1,.1-.41,8.92,8.92,0,0,0,.41-4.08q0-.14,0-.28a1.46,1.46,0,0,0-2.87-.14h0a11.3,11.3,0,0,1-1.33,3.22,1.38,1.38,0,0,0-.15.34q-2.17,8.1-4.89,15.55T317,265a1.33,1.33,0,0,0,0,.15,15.64,15.64,0,0,1-1.73,5,19.32,19.32,0,0,0-1.89,4.78,1.39,1.39,0,0,1-.12.31q-.86,1.59-2,3.4t-3.8,1.35a1.51,1.51,0,0,0-.56,0,5.94,5.94,0,0,1-4.09-.29,10.14,10.14,0,0,1-3.24-3.18,1.39,1.39,0,0,0-.29-.29,6.48,6.48,0,0,1-2.08-3.58q-.71-2.62-1-4a122.21,122.21,0,0,1-3.05-36,224.08,224.08,0,0,1,10.21-54.74,39.53,39.53,0,0,1,1.92-5.66,38.33,38.33,0,0,1,1.61-4c.06-.1,1.37-3.55,1.41-3.66.74-1.94,2.64-5.69,3.59-6.59,1.51-1.41,1-1.4,3.07-2.32,1.85-.81,2.91,5.05,3.78,6.44,1.3,2.07,1,3.33.76,5.71-.15,1.87-.05,1.89-.36,4.63-.77,7-2,17-3.09,24.43s-1.88,15-2.38,22.66v.12a73.42,73.42,0,0,0-1,13.86,82.36,82.36,0,0,1-.85,13.51,1.11,1.11,0,0,0,.84,1.25l.59.14,1.33-.74a15.55,15.55,0,0,1,1.31-2.78,1.26,1.26,0,0,0,.09-.19q3.76-9.49,7-18.54T330,207.42q2.13-5.79,6.43-6.5t9.14,2.12a8.1,8.1,0,0,1,2.82,3.08,7.34,7.34,0,0,1,.73,4.61,1.46,1.46,0,0,0,0,.52q.91,3.79,1.66,7.24a23.72,23.72,0,0,1,.33,7.62v.11q-.3,27.3-1,53.1a1.31,1.31,0,0,0,0,.32,13,13,0,0,1,.28,2.16,5.34,5.34,0,0,1-.71,2.73Z"/><text class="cls-2" transform="translate(358.2 305.14)">.</text></g></g></svg>