<svg xmlns="http://www.w3.org/2000/svg" data-name="Layer 1" viewBox="0 0 128 160" x="0px" y="0px"><title>Artboard 5</title><circle cx="70" cy="49" r="2"/><circle cx="60" cy="12" r="2"/><circle cx="57" cy="49" r="2"/><circle cx="63" cy="64" r="2"/><circle cx="55" cy="79" r="2"/><circle cx="70" cy="74" r="2"/><circle cx="63" cy="86" r="2"/><circle cx="56" cy="97" r="2"/><circle cx="70" cy="33" r="2"/><circle cx="64" cy="24" r="2"/><circle cx="60" cy="32" r="2"/><circle cx="63" cy="3" r="2"/><circle cx="67" cy="14" r="2"/><circle cx="24" cy="122" r="3"/><circle cx="108" cy="122" r="3"/><circle cx="123" cy="119" r="3"/><circle cx="75" cy="125" r="3"/><path d="M126.16,66a6,6,0,0,0-8.83-7.77c-.73-.22-1.52-.43-2.36-.62a6,6,0,0,0-8.73-1.3A136.21,136.21,0,0,0,90,56a5,5,0,0,0-8.14.24c-8.31.21-10.69.1-16.09-.16l-1,0a2,2,0,1,0-3.51-.18c-2.5-.15-4.37-.31-5.95-.47a5,5,0,0,0-7.84-.84l-2.69-.23a6,6,0,0,0-9-.46,63,63,0,0,0-16.61,1.54A5.81,5.81,0,0,0,17,55a6,6,0,0,0-5.55,3.75,13.05,13.05,0,0,0-3.1,3.11,10.57,10.57,0,0,0-.85,1.5A3,3,0,0,0,4.59,62a3,3,0,0,0-2.05,1.35A2.77,2.77,0,0,0,2.18,66h0A2.18,2.18,0,0,0,0,68.18v39.64A2.18,2.18,0,0,0,2.18,110H6a14.8,14.8,0,0,0,1.19,3.13A3,3,0,1,0,11,116.32a7.44,7.44,0,0,0,1.13.19,7.33,7.33,0,0,0,4.63-1.32,2.6,2.6,0,0,0,4.49-1.77A16.19,16.19,0,0,1,27,113c.41,0,.79.09,1.17.15-.26,1-.26,2,1.21,3.46a3.13,3.13,0,0,0,2.08.91,3.47,3.47,0,0,0,3.37-2.45c1.22.43,2.58.9,4.22,1.39a5,5,0,0,0,9.24,2.09,21.26,21.26,0,0,0,5-.07,4,4,0,1,0,7-.78,34.89,34.89,0,0,1,4,.12A3,3,0,1,0,70,119a3,3,0,0,0,0-.35c5.51,1.16,6.19,2.62,11,2.35a18.58,18.58,0,0,0,5.65-1.15,3,3,0,0,0,2.1,1.14,3.05,3.05,0,0,0,2.65-1.35,2.6,2.6,0,0,0,.44-2.53,20.66,20.66,0,0,1,5.2-2.49,21.61,21.61,0,0,1,4-.61c5.24-.7,6-2.58,9.39-2.95a5,5,0,1,0,9.28.2,8.54,8.54,0,0,0,1.57-1.26h4.58a2.18,2.18,0,0,0,2.18-2.18V68.18A2.17,2.17,0,0,0,126.16,66ZM15.07,60.51A2,2,0,0,1,17,59a2,2,0,0,1,.95.26l.72.39.79-.22c4.33-1.23,10.09-1.76,17.12-1.56l1.14,0,.61-1a2,2,0,0,1,3.46.18l.51,1,1.14.08c1.65.12,3.19.25,4.72.41l1.36.14.62-1.21a1,1,0,0,1,1.84.2l.35,1.34,1.37.15c2.41.26,5.31.53,10.23.76l1.66.08c5.76.27,8.15.39,17.61.13l1.48,0L85,58.74a1,1,0,0,1,1.89-.05l.55,1.4L90.07,60a129.07,129.07,0,0,1,16.71.41l1,.1.68-.8A2,2,0,0,1,110,59a2,2,0,0,1,1.83,1.21l.41.95,1,.21a31.32,31.32,0,0,1,3.95,1.06l1.35.47.88-1.12a2,2,0,1,1,2.24,3.09l-.93.34,0,.15a8.39,8.39,0,0,0-3.4.39,4,4,0,0,0-5.46-1.1A3,3,0,0,0,107.18,66H96l-1.19,0a3,3,0,0,0-5.72.31,24,24,0,0,1-2.84-.08c-4-.31-6.24-1-7.64.4-.53.54-.58,1-1.26,3.93-1,4.07-.83,3-1.36,5.46-1.56,7.38-1,9.31-2.81,14.2A24.69,24.69,0,0,1,72,93c-.79,1.57-4.59,9.07-11,10a9.78,9.78,0,0,1-6-1c-10-5.74-2.39-32.72-10.63-36.1a36,36,0,0,0-6.77-1.25c-2.06-.29-3.07-.34-6.61-.65l-.19,0a3,3,0,0,0-4.65-1.34,4,4,0,0,0-4.85.41L21,63a30.31,30.31,0,0,1-6.18-1.7l.06,0Z"/><text x="0" y="143" fill="#000000" font-size="5px" font-weight="bold" font-family="'Helvetica Neue', Helvetica, Arial-Unicode, Arial, Sans-serif">Created by Juraj Sedlák</text><text x="0" y="148" fill="#000000" font-size="5px" font-weight="bold" font-family="'Helvetica Neue', Helvetica, Arial-Unicode, Arial, Sans-serif">from the Noun Project</text></svg>